<svg viewBox="0 0 24 24" fill="currentColor" xmlns="http://www.w3.org/2000/svg" class="seo-pages-htr69o" role="img" version="1.1"><path fill-rule="evenodd" clip-rule="evenodd" d="M5.368 18.847a9.575 9.575 0 0 0 6.592 2.624 9.573 9.573 0 0 0 6.488-2.527c-2.387-3.465-6.419-3.5-6.485-3.5a4.957 4.957 0 0 1-4.954-4.951 4.957 4.957 0 0 1 4.95-4.951 4.956 4.956 0 0 1 4.193 7.587.625.625 0 0 1-1.058-.666 3.705 3.705 0 0 0-3.134-5.671 3.705 3.705 0 0 0-3.701 3.701 3.705 3.705 0 0 0 3.7 3.701c.183-.022 4.597.018 7.369 3.83a9.569 9.569 0 0 0 2.242-6.164c0-5.298-4.311-9.61-9.61-9.61-5.299 0-9.61 4.312-9.61 9.61 0 2.292.807 4.4 2.151 6.054.887-1.178 2.042-1.989 2.909-2.483a.625.625 0 0 1 .62 1.085c-.807.459-1.892 1.225-2.662 2.33Zm14.38.575a.62.62 0 0 1-.104.106 10.826 10.826 0 0 1-7.684 3.193c-5.988 0-10.86-4.872-10.86-10.861C1.1 5.872 5.972 1 11.96 1c5.988 0 10.86 4.872 10.86 10.86 0 2.937-1.172 5.605-3.072 7.562Z" fill="currentColor"/></svg>